<mxfile host="app.diagrams.net" modified="2024-04-09T16:01:03.099Z" agent="Mozilla/5.0 (Macintosh; Intel Mac OS X 10_15_7) AppleWebKit/537.36 (KHTML, like Gecko) Chrome/123.0.0.0 Safari/537.36" version="24.2.1" etag="Zg4r7_JWsCleDWs3K2Fy" type="github">
  <diagram name="PÃ¡gina-1" id="TDRQ-0OAnl5W1jvh7CU_">
    <mxGraphModel>
      <root>
        <mxCell id="0" />
        <mxCell id="1" parent="0" />
      </root>
    </mxGraphModel>
  </diagram>
</mxfile>
